<svg height="512pt" viewBox="0 0 512.00061 512" width="512pt" xmlns="http://www.w3.org/2000/svg"><path d="m306 346h-10v-130c0-5.523438-4.476562-10-10-10h-80c-5.523438 0-10 4.476562-10 10v40c0 5.523438 4.476562 10 10 10h10v80h-10c-5.523438 0-10 4.476562-10 10v40c0 5.523438 4.476562 10 10 10h100c5.523438 0 10-4.476562 10-10v-40c0-5.523438-4.476562-10-10-10zm-10 40h-80v-20h10c5.523438 0 10-4.476562 10-10v-100c0-5.523438-4.476562-10-10-10h-10v-20h60v130c0 5.523438 4.480469 10 10 10h10zm0 0"/><path d="m256 186c22.054688 0 40-17.945312 40-40s-17.945312-40-40-40-40 17.945312-40 40 17.945312 40 40 40zm0-60c11.027344 0 20 8.972656 20 20s-8.972656 20-20 20-20-8.972656-20-20 8.972656-20 20-20zm0 0"/><path d="m256 0c-137.976562 0-256 117.800781-256 256 0 47.207031 13.527344 97.410156 36.335938 135.382812l-35.824219 107.457032c-1.195313 3.589844-.261719 7.554687 2.417969 10.230468 2.691406 2.691407 6.660156 3.609376 10.234374 2.414063l107.457032-35.820313c37.96875 22.8125 88.171875 36.335938 135.378906 36.335938 138.011719 0 256-117.816406 256-256 0-138.011719-117.8125-256-256-256zm0 492c-45.285156 0-93.417969-13.363281-128.757812-35.746094-2.503907-1.585937-5.625-2.003906-8.515626-1.039062l-92.914062 30.972656 30.972656-92.914062c.953125-2.851563.570313-5.976563-1.039062-8.515626-22.382813-35.335937-35.746094-83.472656-35.746094-128.757812 0-127.925781 108.074219-236 236-236s236 108.074219 236 236-108.074219 236-236 236zm0 0"/></svg>