<svg xmlns="http://www.w3.org/2000/svg" width="20" height="18" viewBox="0 0 20 18"><defs><style>.a{fill:#4f4d59;}</style></defs><path class="a" d="M-5159.633,218v-1.249h2.2v-1.623H-5164v-1.9l20,.009v1.889h-6.571v1.623h2.2V218Zm-4.368-6.018V200h20v11.991Zm12.347-2.357h4.225v-1.249h-4.225Zm-2.347,0h1.408v-1.249H-5154Zm-6.245-4.453a2.073,2.073,0,0,0,.783,1.627,2.549,2.549,0,0,0-1.252,2.2v.624h4.979V209a2.549,2.549,0,0,0-1.252-2.2,2.071,2.071,0,0,0,.783-1.627,2.042,2.042,0,0,0-2.02-2.06A2.043,2.043,0,0,0-5160.246,205.171Zm8.592,1.821h4.225v-1.249h-4.225Zm-2.347,0h1.408v-1.249H-5154Zm2.347-2.632h4.225v-1.249h-4.225Zm-2.347,0h1.408v-1.249H-5154Zm-5.332,4.016a1.264,1.264,0,0,1,1.108-.666,1.262,1.262,0,0,1,1.106.666Zm.312-3.2a.8.8,0,0,1,.8-.812.805.805,0,0,1,.8.812.805.805,0,0,1-.8.812A.8.8,0,0,1-5159.021,205.171Z" transform="translate(5164.001 -200)"/></svg>